<svg xmlns="http://www.w3.org/2000/svg" viewBox="0 0 24 24" shape-rendering="crispEdges"><path fill="#1a1c2c" d="M3 5h2v1h-2zM10 5h2v1h-2zM2 6h1v1h-1zM5 6h1v1h-1zM10 6h1v1h-1zM13 6h1v1h-1zM2 7h1v1h-1zM12 7h1v1h-1zM1 8h1v1h-1zM12 8h1v1h-1zM1 9h1v1h-1zM3 9h1v1h-1zM12 9h1v1h-1zM18 9h1v1h-1zM20 9h1v1h-1zM1 10h1v1h-1zM12 10h1v1h-1zM17 10h1v1h-1zM21 10h1v1h-1zM1 11h1v1h-1zM12 11h1v1h-1zM17 11h1v1h-1zM21 11h1v1h-1zM2 12h1v1h-1zM12 12h1v1h-1zM16 12h1v1h-1zM21 12h1v1h-1zM3 13h1v1h-1zM17 13h1v1h-1zM20 13h1v1h-1zM3 14h1v1h-1zM18 14h1v1h-1zM3 15h1v1h-1zM17 15h1v1h-1zM4 16h1v1h-1zM16 16h1v1h-1zM4 17h1v1h-1zM7 17h1v1h-1zM12 17h1v1h-1zM15 17h1v1h-1zM4 18h1v1h-1zM7 18h1v1h-1zM12 18h1v1h-1zM15 18h1v1h-1zM4 19h1v1h-1zM7 19h1v1h-1zM12 19h1v1h-1zM15 19h1v1h-1zM4 20h4v1h-4zM12 20h4v1h-4z"/><path fill="#2e3138" d="M3 6h1v1h-1zM12 6h1v1h-1zM2 11h1v1h-1zM5 17h2v1h-2zM13 17h2v1h-2zM5 18h2v1h-2zM13 18h2v1h-2zM5 19h2v1h-2zM13 19h2v1h-2z"/><path fill="#d97a2b" d="M4 6h1v1h-1zM11 6h1v1h-1zM3 7h9v1h-9zM3 8h9v1h-9zM2 9h1v1h-1zM5 9h7v1h-7zM4 10h8v1h-8zM5 11h7v1h-7zM20 11h1v1h-1zM5 12h7v1h-7zM18 12h3v1h-3zM6 13h11v1h-11zM19 13h1v1h-1zM5 14h13v1h-13zM5 15h12v1h-12zM5 16h11v1h-11z"/><path fill="#f2a65a" d="M2 8h1v1h-1z"/><path fill="#ffffff" d="M4 9h1v1h-1z"/><path fill="#f4f7fa" d="M19 9h1v1h-1zM2 10h2v1h-2zM18 10h3v1h-3zM3 11h2v1h-2zM18 11h1v1h-1zM3 12h2v1h-2zM4 13h2v1h-2zM4 14h1v1h-1zM4 15h1v1h-1z"/><path fill="#9c4a1a" d="M19 11h1v1h-1zM17 12h1v1h-1zM18 13h1v1h-1z"/></svg>
