<svg xmlns="http://www.w3.org/2000/svg" viewBox="0 0 24 24" shape-rendering="crispEdges"><path fill="#1a1c2c" d="M2 5h2v1h-2zM8 5h2v1h-2zM2 6h1v1h-1zM10 6h1v1h-1zM1 7h1v1h-1zM10 7h1v1h-1zM1 8h1v1h-1zM10 8h1v1h-1zM2 9h1v1h-1zM9 9h1v1h-1zM2 10h1v1h-1zM14 10h1v1h-1zM16 10h1v1h-1zM19 10h1v1h-1zM1 11h1v1h-1zM15 11h1v1h-1zM17 11h1v1h-1zM20 11h1v1h-1zM1 12h1v1h-1zM15 12h1v1h-1zM17 12h1v1h-1zM20 12h1v1h-1zM1 13h1v1h-1zM15 13h1v1h-1zM17 13h1v1h-1zM20 13h1v1h-1zM2 14h1v1h-1zM15 14h2v1h-2zM19 14h1v1h-1zM2 15h1v1h-1zM15 15h1v1h-1zM3 16h1v1h-1zM6 16h1v1h-1zM11 16h1v1h-1zM14 16h1v1h-1zM3 17h1v1h-1zM6 17h1v1h-1zM11 17h1v1h-1zM14 17h1v1h-1zM3 18h4v1h-4zM11 18h4v1h-4z"/><path fill="#7b8089" d="M3 6h7v1h-7zM4 8h6v1h-6zM4 9h5v1h-5zM3 10h11v1h-11zM3 11h12v1h-12zM2 12h13v1h-13zM2 13h13v1h-13zM3 14h12v1h-12zM3 15h12v1h-12z"/><path fill="#2e3138" d="M2 7h2v1h-2zM5 7h5v1h-5zM2 8h1v1h-1zM17 10h2v1h-2zM18 12h2v1h-2zM17 14h2v1h-2zM4 16h2v1h-2zM12 16h2v1h-2zM4 17h2v1h-2zM12 17h2v1h-2z"/><path fill="#ffffff" d="M4 7h1v1h-1z"/><path fill="#f4f7fa" d="M3 8h1v1h-1zM3 9h1v1h-1z"/><path fill="#aab0b8" d="M2 11h1v1h-1zM18 11h2v1h-2zM18 13h2v1h-2z"/></svg>
