<svg xmlns="http://www.w3.org/2000/svg" viewBox="0 0 24 24" shape-rendering="crispEdges"><path fill="#1a1c2c" d="M14 4h1v1h-1zM17 4h1v1h-1zM6 5h2v1h-2zM13 5h1v1h-1zM18 5h1v1h-1zM4 6h1v1h-1zM8 6h1v1h-1zM13 6h1v1h-1zM18 6h1v1h-1zM3 7h1v1h-1zM5 7h1v1h-1zM9 7h1v1h-1zM14 7h1v1h-1zM18 7h1v1h-1zM2 8h1v1h-1zM9 8h1v1h-1zM14 8h1v1h-1zM18 8h1v1h-1zM3 9h1v1h-1zM8 9h1v1h-1zM14 9h1v1h-1zM18 9h1v1h-1zM3 10h1v1h-1zM9 10h1v1h-1zM14 10h1v1h-1zM18 10h1v1h-1zM2 11h1v1h-1zM10 11h1v1h-1zM13 11h1v1h-1zM18 11h1v1h-1zM2 12h1v1h-1zM10 12h1v1h-1zM13 12h1v1h-1zM17 12h1v1h-1zM2 13h1v1h-1zM11 13h2v1h-2zM16 13h1v1h-1zM2 14h1v1h-1zM16 14h1v1h-1zM3 15h1v1h-1zM15 15h1v1h-1zM3 16h1v1h-1zM13 16h1v1h-1zM4 17h1v1h-1zM7 17h1v1h-1zM9 17h1v1h-1zM12 17h1v1h-1zM4 18h4v1h-4zM9 18h4v1h-4z"/><path fill="#cf7a45" d="M15 4h2v1h-2zM14 5h2v1h-2z"/><path fill="#a8542e" d="M16 5h2v1h-2zM5 6h3v1h-3zM14 6h4v1h-4zM4 7h1v1h-1zM7 7h2v1h-2zM15 7h3v1h-3zM4 8h5v1h-5zM15 8h3v1h-3zM4 9h4v1h-4zM15 9h3v1h-3zM4 10h5v1h-5zM15 10h3v1h-3zM3 11h7v1h-7zM14 11h4v1h-4zM5 12h5v1h-5zM14 12h3v1h-3zM5 13h6v1h-6zM13 13h3v1h-3zM5 14h11v1h-11zM4 15h11v1h-11zM4 16h9v1h-9z"/><path fill="#ffffff" d="M6 7h1v1h-1z"/><path fill="#f4f7fa" d="M3 8h1v1h-1zM3 12h2v1h-2zM3 13h2v1h-2zM3 14h2v1h-2z"/><path fill="#2e3138" d="M5 17h2v1h-2zM10 17h2v1h-2z"/></svg>
