<svg xmlns="http://www.w3.org/2000/svg" viewBox="0 0 24 24" shape-rendering="crispEdges"><path fill="#1a1c2c" d="M3 9h4v1h-4zM2 10h1v1h-1zM4 10h1v1h-1zM7 10h1v1h-1zM17 10h1v1h-1zM19 10h1v1h-1zM2 11h1v1h-1zM7 11h1v1h-1zM16 11h1v1h-1zM20 11h1v1h-1zM2 12h1v1h-1zM8 12h1v1h-1zM16 12h1v1h-1zM19 12h1v1h-1zM3 13h1v1h-1zM10 13h1v1h-1zM16 13h1v1h-1zM19 13h1v1h-1zM4 14h1v1h-1zM11 14h2v1h-2zM15 14h1v1h-1zM18 14h1v1h-1zM5 15h1v1h-1zM13 15h2v1h-2zM19 15h1v1h-1zM6 16h1v1h-1zM19 16h1v1h-1zM7 17h12v1h-12z"/><path fill="#c19a5e" d="M3 10h1v1h-1zM6 10h1v1h-1zM3 11h4v1h-4zM3 12h5v1h-5zM4 13h6v1h-6zM17 13h2v1h-2zM5 14h1v1h-1zM8 14h3v1h-3zM16 14h2v1h-2zM6 15h2v1h-2zM10 15h3v1h-3zM15 15h4v1h-4zM7 16h3v1h-3zM12 16h7v1h-7z"/><path fill="#ffffff" d="M5 10h1v1h-1z"/><path fill="#e0c898" d="M18 10h1v1h-1zM17 11h3v1h-3zM17 12h2v1h-2z"/><path fill="#cc2f2f" d="M1 11h1v1h-1z"/><path fill="#2e3138" d="M6 14h2v1h-2zM8 15h2v1h-2zM10 16h2v1h-2z"/></svg>
