<svg xmlns="http://www.w3.org/2000/svg" viewBox="0 0 24 24" shape-rendering="crispEdges"><path fill="#1a1c2c" d="M2 6h2v1h-2zM7 6h1v1h-1zM17 6h1v1h-1zM1 7h1v1h-1zM5 7h2v1h-2zM19 7h1v1h-1zM1 8h1v1h-1zM19 8h1v1h-1zM1 9h1v1h-1zM18 9h1v1h-1zM1 10h1v1h-1zM19 10h1v1h-1zM2 11h1v1h-1zM19 11h1v1h-1zM2 12h1v1h-1zM19 12h1v1h-1zM3 13h1v1h-1zM19 13h1v1h-1zM3 14h1v1h-1zM19 14h1v1h-1zM3 15h1v1h-1zM19 15h1v1h-1zM3 16h1v1h-1zM7 16h1v1h-1zM14 16h1v1h-1zM18 16h1v1h-1zM3 17h1v1h-1zM7 17h1v1h-1zM14 17h1v1h-1zM18 17h1v1h-1zM3 18h1v1h-1zM7 18h1v1h-1zM14 18h1v1h-1zM18 18h1v1h-1zM3 19h1v1h-1zM7 19h1v1h-1zM14 19h1v1h-1zM18 19h1v1h-1zM3 20h4v1h-4zM14 20h4v1h-4z"/><path fill="#f4f7fa" d="M8 6h8v1h-8zM2 7h2v1h-2zM7 7h11v1h-11zM2 8h1v1h-1zM4 8h2v1h-2zM7 8h11v1h-11zM3 9h3v1h-3zM7 9h10v1h-10zM2 10h4v1h-4zM7 10h11v1h-11zM3 11h15v1h-15zM4 12h14v1h-14zM4 13h14v1h-14zM5 14h13v1h-13zM6 15h11v1h-11zM4 16h2v1h-2zM15 16h2v1h-2zM4 17h2v1h-2zM15 17h2v1h-2zM4 18h2v1h-2zM15 18h2v1h-2z"/><path fill="#cdd6e0" d="M16 6h1v1h-1zM4 7h1v1h-1zM18 7h1v1h-1zM6 8h1v1h-1zM18 8h1v1h-1zM6 9h1v1h-1zM17 9h1v1h-1zM6 10h1v1h-1zM18 10h1v1h-1zM18 11h1v1h-1zM3 12h1v1h-1zM18 12h1v1h-1zM18 13h1v1h-1zM4 14h1v1h-1zM18 14h1v1h-1zM4 15h2v1h-2zM17 15h2v1h-2zM6 16h1v1h-1zM17 16h1v1h-1zM6 17h1v1h-1zM17 17h1v1h-1zM6 18h1v1h-1zM17 18h1v1h-1zM4 19h3v1h-3zM15 19h3v1h-3z"/><path fill="#2e3138" d="M3 8h1v1h-1zM2 9h1v1h-1z"/></svg>
