<svg xmlns="http://www.w3.org/2000/svg" viewBox="0 0 24 24" shape-rendering="crispEdges"><path fill="#1a1c2c" d="M3 4h4v1h-4zM2 5h1v1h-1zM7 5h1v1h-1zM1 6h1v1h-1zM6 6h1v1h-1zM9 6h1v1h-1zM2 7h1v1h-1zM4 7h1v1h-1zM9 7h1v1h-1zM3 8h1v1h-1zM9 8h1v1h-1zM3 9h1v1h-1zM11 9h1v1h-1zM2 10h1v1h-1zM12 10h1v1h-1zM2 11h1v1h-1zM13 11h1v1h-1zM2 12h1v1h-1zM13 12h1v1h-1zM2 13h1v1h-1zM13 13h1v1h-1zM3 14h1v1h-1zM13 14h1v1h-1zM3 15h1v1h-1zM13 15h1v1h-1zM4 16h1v1h-1zM7 16h2v1h-2zM12 16h1v1h-1zM4 17h1v1h-1zM6 17h1v1h-1zM9 17h1v1h-1zM12 17h1v1h-1zM2 18h1v1h-1zM14 18h1v1h-1z"/><path fill="#f4f7fa" d="M3 5h4v1h-4zM4 6h2v1h-2zM8 6h1v1h-1zM5 7h4v1h-4zM4 8h4v1h-4zM4 9h2v1h-2zM9 16h3v1h-3zM10 17h2v1h-2z"/><path fill="#e8b830" d="M2 6h2v1h-2zM3 7h1v1h-1zM5 16h2v1h-2zM5 17h1v1h-1z"/><path fill="#ffffff" d="M7 6h1v1h-1z"/><path fill="#8a5a32" d="M8 8h1v1h-1zM6 9h5v1h-5zM3 10h9v1h-9zM3 11h2v1h-2zM6 11h7v1h-7zM3 12h2v1h-2zM7 12h6v1h-6zM3 13h3v1h-3zM8 13h5v1h-5zM4 14h4v1h-4zM10 14h3v1h-3zM4 15h9v1h-9z"/><path fill="#5c3a21" d="M5 11h1v1h-1zM5 12h2v1h-2zM6 13h2v1h-2zM8 14h2v1h-2zM3 18h11v1h-11z"/></svg>
