<svg xmlns="http://www.w3.org/2000/svg" viewBox="0 0 24 24" shape-rendering="crispEdges"><path fill="#1a1c2c" d="M4 6h2v1h-2zM11 6h2v1h-2zM3 7h1v1h-1zM6 7h1v1h-1zM10 7h1v1h-1zM13 7h1v1h-1zM2 8h1v1h-1zM7 8h1v1h-1zM9 8h1v1h-1zM14 8h1v1h-1zM2 9h1v1h-1zM7 9h1v1h-1zM9 9h1v1h-1zM14 9h1v1h-1zM2 10h1v1h-1zM7 10h1v1h-1zM9 10h1v1h-1zM14 10h1v1h-1zM3 11h1v1h-1zM7 11h1v1h-1zM9 11h1v1h-1zM13 11h1v1h-1zM2 12h1v1h-1zM7 12h1v1h-1zM9 12h1v1h-1zM14 12h1v1h-1zM2 13h1v1h-1zM7 13h1v1h-1zM9 13h1v1h-1zM14 13h1v1h-1zM3 14h1v1h-1zM7 14h1v1h-1zM9 14h1v1h-1zM13 14h1v1h-1zM4 15h1v1h-1zM7 15h1v1h-1zM9 15h1v1h-1zM12 15h1v1h-1zM5 16h2v1h-2zM10 16h2v1h-2z"/><path fill="#3a7bd5" d="M4 7h2v1h-2zM11 7h2v1h-2zM3 8h1v1h-1zM5 8h2v1h-2zM10 8h2v1h-2zM13 8h1v1h-1zM3 9h1v1h-1zM5 9h2v1h-2zM10 9h1v1h-1zM12 9h2v1h-2zM3 10h2v1h-2zM6 10h1v1h-1zM10 10h1v1h-1zM12 10h2v1h-2zM4 11h3v1h-3zM10 11h3v1h-3zM3 12h1v1h-1zM5 12h2v1h-2zM10 12h2v1h-2zM13 12h1v1h-1zM3 13h4v1h-4zM10 13h4v1h-4zM4 14h3v1h-3zM10 14h3v1h-3zM5 15h2v1h-2zM10 15h2v1h-2z"/><path fill="#ffffff" d="M4 8h1v1h-1zM12 8h1v1h-1z"/><path fill="#7db1ec" d="M4 9h1v1h-1zM11 9h1v1h-1zM5 10h1v1h-1zM11 10h1v1h-1zM4 12h1v1h-1zM12 12h1v1h-1z"/><path fill="#2e3138" d="M8 9h1v1h-1zM8 10h1v1h-1zM8 11h1v1h-1zM8 12h1v1h-1zM8 13h1v1h-1zM8 14h1v1h-1zM8 15h1v1h-1z"/></svg>
