<svg xmlns="http://www.w3.org/2000/svg" viewBox="0 0 24 24" shape-rendering="crispEdges"><path fill="#1a1c2c" d="M3 10h2v1h-2zM11 10h1v1h-1zM13 10h1v1h-1zM15 10h1v1h-1zM1 11h1v1h-1zM4 11h1v1h-1zM19 11h1v1h-1zM1 12h1v1h-1zM20 12h1v1h-1zM1 13h1v1h-1zM20 13h1v1h-1zM2 14h1v1h-1zM19 14h1v1h-1zM3 15h1v1h-1zM5 15h1v1h-1zM8 15h1v1h-1zM10 15h1v1h-1zM14 15h1v1h-1zM16 15h1v1h-1zM3 16h3v1h-3zM8 16h3v1h-3zM14 16h3v1h-3z"/><path fill="#4e8c3a" d="M2 11h2v1h-2zM6 11h12v1h-12zM2 12h17v1h-17zM8 13h11v1h-11zM8 14h10v1h-10zM4 15h1v1h-1zM9 15h1v1h-1zM15 15h1v1h-1z"/><path fill="#ffffff" d="M5 11h1v1h-1z"/><path fill="#2e5d2e" d="M18 11h1v1h-1zM19 12h1v1h-1zM19 13h1v1h-1zM18 14h1v1h-1z"/><path fill="#f5e6c4" d="M2 13h6v1h-6zM3 14h5v1h-5z"/></svg>
