<svg xmlns="http://www.w3.org/2000/svg" viewBox="0 0 24 24" shape-rendering="crispEdges"><path fill="#1a1c2c" d="M18 8h1v1h-1zM21 8h1v1h-1zM17 9h1v1h-1zM20 9h1v1h-1zM1 10h1v1h-1zM16 10h2v1h-2zM20 10h1v1h-1zM1 11h1v1h-1zM18 11h1v1h-1zM1 12h1v1h-1zM17 12h1v1h-1zM1 13h1v1h-1zM16 13h1v1h-1zM2 14h1v1h-1zM15 14h1v1h-1zM3 15h11v1h-11z"/><path fill="#3a76a8" d="M19 8h2v1h-2zM2 10h14v1h-14zM2 11h1v1h-1z"/><path fill="#244e78" d="M18 9h2v1h-2zM18 10h2v1h-2zM3 11h15v1h-15zM3 12h14v1h-14zM10 13h6v1h-6zM11 14h4v1h-4z"/><path fill="#ffffff" d="M2 12h1v1h-1z"/><path fill="#f5e6c4" d="M2 13h8v1h-8zM3 14h8v1h-8z"/></svg>
