<svg xmlns="http://www.w3.org/2000/svg" viewBox="0 0 24 24" shape-rendering="crispEdges"><path fill="#1a1c2c" d="M11 6h2v1h-2zM10 7h1v1h-1zM13 7h1v1h-1zM10 8h1v1h-1zM13 8h1v1h-1zM10 9h1v1h-1zM13 9h1v1h-1zM18 9h1v1h-1zM20 9h1v1h-1zM1 10h1v1h-1zM15 10h2v1h-2zM19 10h1v1h-1zM1 11h1v1h-1zM18 11h1v1h-1zM1 12h1v1h-1zM17 12h1v1h-1zM1 13h1v1h-1zM16 13h1v1h-1zM2 14h1v1h-1zM14 14h1v1h-1zM3 15h10v1h-10z"/><path fill="#2e3138" d="M11 7h1v1h-1zM11 8h1v1h-1zM11 9h1v1h-1zM2 10h12v1h-12zM4 11h11v1h-11zM3 12h13v1h-13zM9 13h6v1h-6zM9 14h4v1h-4z"/><path fill="#16181d" d="M12 7h1v1h-1zM12 8h1v1h-1zM12 9h1v1h-1zM19 9h1v1h-1zM14 10h1v1h-1zM17 10h2v1h-2zM15 11h3v1h-3zM16 12h1v1h-1zM15 13h1v1h-1zM13 14h1v1h-1z"/><path fill="#f4f7fa" d="M2 11h2v1h-2zM2 13h7v1h-7zM3 14h6v1h-6z"/><path fill="#ffffff" d="M2 12h1v1h-1z"/></svg>
