<svg xmlns="http://www.w3.org/2000/svg" viewBox="0 0 24 24" shape-rendering="crispEdges"><path fill="#1a1c2c" d="M14 9h1v1h-1zM17 9h1v1h-1zM6 10h1v1h-1zM15 10h1v1h-1zM19 10h1v1h-1zM21 10h1v1h-1zM4 11h1v1h-1zM16 11h1v1h-1zM18 11h1v1h-1zM21 11h1v1h-1zM2 12h1v1h-1zM17 12h2v1h-2zM21 12h1v1h-1zM2 13h1v1h-1zM15 13h4v1h-4zM21 13h1v1h-1zM4 14h1v1h-1zM15 14h1v1h-1zM18 14h1v1h-1zM20 14h1v1h-1zM6 15h1v1h-1zM13 15h1v1h-1z"/><path fill="#3a4a2a" d="M15 9h2v1h-2zM20 10h1v1h-1zM19 11h2v1h-2zM19 12h2v1h-2zM19 13h2v1h-2zM19 14h1v1h-1z"/><path fill="#5c7340" d="M7 10h8v1h-8zM5 11h2v1h-2zM8 11h4v1h-4zM13 11h3v1h-3zM4 12h13v1h-13z"/><path fill="#86a05c" d="M7 11h1v1h-1zM12 11h1v1h-1z"/><path fill="#ffffff" d="M3 12h1v1h-1z"/><path fill="#f5e6c4" d="M3 13h12v1h-12zM5 14h10v1h-10zM7 15h6v1h-6z"/></svg>
