<svg xmlns="http://www.w3.org/2000/svg" viewBox="0 0 24 24" shape-rendering="crispEdges"><path fill="#1a1c2c" d="M7 9h7v1h-7zM6 10h1v1h-1zM14 10h1v1h-1zM5 11h1v1h-1zM15 11h1v1h-1zM5 12h1v1h-1zM7 12h1v1h-1zM9 12h1v1h-1zM11 12h1v1h-1zM13 12h1v1h-1zM15 12h1v1h-1zM1 13h1v1h-1zM4 13h1v1h-1zM7 13h1v1h-1zM9 13h1v1h-1zM11 13h1v1h-1zM13 13h1v1h-1zM16 13h1v1h-1zM1 14h1v1h-1zM4 14h1v1h-1zM16 14h2v1h-2zM20 14h1v1h-1zM4 15h1v1h-1zM16 15h1v1h-1zM19 15h1v1h-1zM21 15h1v1h-1zM5 16h1v1h-1zM8 16h1v1h-1zM13 16h1v1h-1zM16 16h1v1h-1zM5 17h4v1h-4zM13 17h4v1h-4z"/><path fill="#aab0b8" d="M7 10h1v1h-1zM13 10h1v1h-1zM6 11h1v1h-1zM14 11h1v1h-1z"/><path fill="#7b8089" d="M8 10h5v1h-5zM7 11h7v1h-7zM6 12h1v1h-1zM8 12h1v1h-1zM10 12h1v1h-1zM12 12h1v1h-1zM14 12h1v1h-1zM5 13h2v1h-2zM8 13h1v1h-1zM10 13h1v1h-1zM12 13h1v1h-1zM14 13h2v1h-2zM5 14h11v1h-11zM5 15h11v1h-11z"/><path fill="#c19a5e" d="M2 13h2v1h-2zM3 14h1v1h-1zM18 14h2v1h-2zM20 15h1v1h-1zM6 16h2v1h-2zM14 16h2v1h-2z"/><path fill="#ffffff" d="M2 14h1v1h-1z"/></svg>
