<svg xmlns="http://www.w3.org/2000/svg" viewBox="0 0 24 24" shape-rendering="crispEdges"><path fill="#1a1c2c" d="M15 6h1v1h-1zM18 6h1v1h-1zM4 7h2v1h-2zM15 7h1v1h-1zM18 7h1v1h-1zM3 8h1v1h-1zM5 8h1v1h-1zM8 8h1v1h-1zM15 8h1v1h-1zM18 8h1v1h-1zM2 9h1v1h-1zM8 9h1v1h-1zM15 9h1v1h-1zM18 9h1v1h-1zM3 10h1v1h-1zM8 10h1v1h-1zM14 10h1v1h-1zM17 10h1v1h-1zM3 11h1v1h-1zM10 11h1v1h-1zM14 11h1v1h-1zM17 11h1v1h-1zM2 12h1v1h-1zM11 12h1v1h-1zM14 12h1v1h-1zM17 12h1v1h-1zM2 13h1v1h-1zM16 13h1v1h-1zM3 14h1v1h-1zM15 14h1v1h-1zM4 15h1v1h-1zM7 15h1v1h-1zM10 15h1v1h-1zM13 15h1v1h-1zM4 16h4v1h-4zM10 16h4v1h-4z"/><path fill="#c19a5e" d="M16 6h2v1h-2zM16 7h2v1h-2zM4 8h1v1h-1zM7 8h1v1h-1zM16 8h2v1h-2zM4 9h4v1h-4zM16 9h2v1h-2zM4 10h4v1h-4zM15 10h2v1h-2zM4 11h1v1h-1zM6 11h1v1h-1zM8 11h2v1h-2zM15 11h2v1h-2zM3 12h2v1h-2zM6 12h1v1h-1zM8 12h3v1h-3zM15 12h2v1h-2zM5 13h1v1h-1zM7 13h1v1h-1zM9 13h7v1h-7zM4 14h11v1h-11zM5 15h2v1h-2zM11 15h2v1h-2z"/><path fill="#ffffff" d="M6 8h1v1h-1z"/><path fill="#f4f7fa" d="M3 9h1v1h-1zM3 13h2v1h-2z"/><path fill="#2e3138" d="M5 11h1v1h-1zM7 11h1v1h-1zM5 12h1v1h-1zM7 12h1v1h-1zM6 13h1v1h-1zM8 13h1v1h-1z"/></svg>
