<svg xmlns="http://www.w3.org/2000/svg" viewBox="0 0 24 24" shape-rendering="crispEdges"><path fill="#1a1c2c" d="M2 8h1v1h-1zM4 8h1v1h-1zM7 8h1v1h-1zM9 8h1v1h-1zM2 9h1v1h-1zM9 9h1v1h-1zM1 10h1v1h-1zM3 10h1v1h-1zM10 10h1v1h-1zM1 11h1v1h-1zM10 11h1v1h-1zM2 12h1v1h-1zM13 12h1v1h-1zM2 13h1v1h-1zM14 13h1v1h-1zM1 14h1v1h-1zM15 14h1v1h-1zM1 15h1v1h-1zM14 15h1v1h-1zM2 16h1v1h-1zM13 16h1v1h-1zM3 17h1v1h-1zM6 17h1v1h-1zM9 17h1v1h-1zM12 17h1v1h-1zM3 18h4v1h-4zM9 18h4v1h-4z"/><path fill="#2e3138" d="M3 8h1v1h-1zM8 8h1v1h-1zM4 17h2v1h-2zM10 17h2v1h-2z"/><path fill="#f4f7fa" d="M3 9h6v1h-6zM2 10h1v1h-1zM5 10h4v1h-4zM3 11h5v1h-5zM3 12h2v1h-2z"/><path fill="#ffffff" d="M4 10h1v1h-1z"/><path fill="#7b8089" d="M9 10h1v1h-1zM8 11h2v1h-2zM5 12h8v1h-8zM3 13h11v1h-11zM2 14h13v1h-13zM2 15h12v1h-12zM3 16h10v1h-10z"/><path fill="#e88aa8" d="M2 11h1v1h-1zM19 13h2v1h-2zM17 14h3v1h-3zM15 15h2v1h-2z"/></svg>
