<svg xmlns="http://www.w3.org/2000/svg" viewBox="0 0 24 24" shape-rendering="crispEdges"><path fill="#1a1c2c" d="M8 9h1v1h-1zM10 9h1v1h-1zM12 9h1v1h-1zM6 10h1v1h-1zM15 10h1v1h-1zM4 11h1v1h-1zM16 11h1v1h-1zM20 11h1v1h-1zM22 11h1v1h-1zM2 12h1v1h-1zM17 12h1v1h-1zM19 12h1v1h-1zM22 12h1v1h-1zM2 13h1v1h-1zM17 13h2v1h-2zM21 13h1v1h-1zM4 14h1v1h-1zM15 14h2v1h-2zM19 14h1v1h-1zM21 14h1v1h-1zM6 15h1v1h-1zM13 15h1v1h-1z"/><path fill="#3a4a2a" d="M7 10h8v1h-8zM21 11h1v1h-1zM8 12h2v1h-2zM20 12h2v1h-2zM8 13h2v1h-2zM19 13h2v1h-2zM20 14h1v1h-1z"/><path fill="#5c7340" d="M5 11h11v1h-11zM4 12h4v1h-4zM10 12h7v1h-7zM10 13h7v1h-7z"/><path fill="#ffffff" d="M3 12h1v1h-1z"/><path fill="#f5e6c4" d="M3 13h5v1h-5zM5 14h10v1h-10zM7 15h6v1h-6z"/></svg>
