<svg xmlns="http://www.w3.org/2000/svg" viewBox="0 0 24 24" shape-rendering="crispEdges"><path fill="#1a1c2c" d="M14 6h1v1h-1zM18 6h1v1h-1zM13 7h1v1h-1zM19 7h1v1h-1zM13 8h1v1h-1zM19 8h1v1h-1zM4 9h2v1h-2zM13 9h1v1h-1zM18 9h1v1h-1zM3 10h1v1h-1zM7 10h1v1h-1zM13 10h1v1h-1zM19 10h1v1h-1zM2 11h1v1h-1zM7 11h1v1h-1zM13 11h1v1h-1zM18 11h1v1h-1zM2 12h1v1h-1zM18 12h1v1h-1zM2 13h1v1h-1zM17 13h1v1h-1zM2 14h1v1h-1zM15 14h1v1h-1zM3 15h1v1h-1zM15 15h1v1h-1zM3 16h1v1h-1zM6 16h1v1h-1zM11 16h1v1h-1zM14 16h1v1h-1zM3 17h4v1h-4zM11 17h4v1h-4z"/><path fill="#f4f7fa" d="M15 6h3v1h-3zM14 7h5v1h-5zM14 8h2v1h-2zM17 8h2v1h-2zM14 9h1v1h-1zM17 9h1v1h-1zM4 10h1v1h-1zM18 10h1v1h-1zM4 12h10v1h-10z"/><path fill="#2e3138" d="M16 8h1v1h-1zM15 9h2v1h-2zM5 10h2v1h-2zM14 10h4v1h-4zM4 11h3v1h-3zM14 11h4v1h-4zM3 12h1v1h-1zM14 12h4v1h-4zM3 13h14v1h-14zM3 14h12v1h-12zM4 15h11v1h-11zM4 16h2v1h-2zM12 16h2v1h-2z"/><path fill="#ffffff" d="M3 11h1v1h-1z"/></svg>
