<svg xmlns="http://www.w3.org/2000/svg" viewBox="0 0 24 24" shape-rendering="crispEdges"><path fill="#1a1c2c" d="M3 4h2v1h-2zM7 4h2v1h-2zM2 5h1v1h-1zM5 5h1v1h-1zM7 5h1v1h-1zM10 5h1v1h-1zM2 6h1v1h-1zM5 6h1v1h-1zM7 6h1v1h-1zM10 6h1v1h-1zM2 7h1v1h-1zM11 7h1v1h-1zM1 8h1v1h-1zM3 8h1v1h-1zM11 8h1v1h-1zM1 9h1v1h-1zM11 9h1v1h-1zM2 10h1v1h-1zM12 10h1v1h-1zM1 11h1v1h-1zM14 11h1v1h-1zM1 12h1v1h-1zM14 12h1v1h-1zM17 12h1v1h-1zM1 13h1v1h-1zM14 13h1v1h-1zM17 13h1v1h-1zM2 14h1v1h-1zM15 14h1v1h-1zM3 15h1v1h-1zM6 15h1v1h-1zM10 15h1v1h-1zM14 15h1v1h-1zM3 16h4v1h-4zM10 16h5v1h-5z"/><path fill="#f7bccb" d="M3 5h1v1h-1zM8 5h1v1h-1zM3 6h1v1h-1zM8 6h1v1h-1z"/><path fill="#8a5a32" d="M4 5h1v1h-1zM9 5h1v1h-1zM4 6h1v1h-1zM9 6h1v1h-1zM3 7h8v1h-8zM2 8h1v1h-1zM5 8h6v1h-6zM4 9h7v1h-7zM3 10h9v1h-9zM2 11h12v1h-12zM2 12h12v1h-12zM5 13h9v1h-9zM5 14h10v1h-10zM4 15h2v1h-2zM11 15h3v1h-3z"/><path fill="#ffffff" d="M4 8h1v1h-1z"/><path fill="#f4f7fa" d="M2 9h2v1h-2zM15 12h2v1h-2zM2 13h3v1h-3zM15 13h2v1h-2zM3 14h2v1h-2z"/></svg>
