<svg xmlns="http://www.w3.org/2000/svg" viewBox="0 0 24 24" shape-rendering="crispEdges"><path fill="#1a1c2c" d="M3 7h2v1h-2zM6 7h2v1h-2zM2 8h1v1h-1zM8 8h1v1h-1zM1 9h1v1h-1zM3 9h1v1h-1zM9 9h1v1h-1zM1 10h1v1h-1zM10 10h1v1h-1zM2 11h1v1h-1zM10 11h1v1h-1zM1 12h1v1h-1zM15 12h1v1h-1zM1 13h1v1h-1zM15 13h1v1h-1zM1 14h1v1h-1zM14 14h2v1h-2zM20 14h1v1h-1zM2 15h1v1h-1zM14 15h2v1h-2zM20 15h1v1h-1zM2 16h1v1h-1zM13 16h1v1h-1zM3 17h1v1h-1zM6 17h1v1h-1zM10 17h1v1h-1zM13 17h1v1h-1zM3 18h4v1h-4zM10 18h4v1h-4z"/><path fill="#8a5a32" d="M3 8h5v1h-5zM2 9h1v1h-1zM5 9h4v1h-4zM2 10h8v1h-8zM5 11h5v1h-5zM2 12h13v1h-13zM3 13h12v1h-12zM2 14h12v1h-12zM3 15h11v1h-11zM3 16h10v1h-10zM4 17h2v1h-2zM11 17h2v1h-2z"/><path fill="#ffffff" d="M4 9h1v1h-1zM3 11h2v1h-2z"/><path fill="#b8854f" d="M2 13h1v1h-1z"/><path fill="#2e3138" d="M16 14h4v1h-4zM16 15h4v1h-4z"/></svg>
