<svg xmlns="http://www.w3.org/2000/svg" viewBox="0 0 24 24" shape-rendering="crispEdges"><path fill="#1a1c2c" d="M3 5h2v1h-2zM10 5h2v1h-2zM2 6h1v1h-1zM5 6h1v1h-1zM10 6h1v1h-1zM13 6h1v1h-1zM2 7h1v1h-1zM12 7h1v1h-1zM1 8h1v1h-1zM12 8h1v1h-1zM1 9h1v1h-1zM3 9h1v1h-1zM12 9h1v1h-1zM1 10h1v1h-1zM13 10h1v1h-1zM1 11h1v1h-1zM13 11h1v1h-1zM2 12h1v1h-1zM13 12h1v1h-1zM3 13h1v1h-1zM18 13h1v1h-1zM3 14h1v1h-1zM18 14h1v1h-1zM4 15h1v1h-1zM15 15h2v1h-2zM19 15h1v1h-1zM4 16h1v1h-1zM7 16h1v1h-1zM12 16h1v1h-1zM15 16h1v1h-1zM17 16h1v1h-1zM20 16h1v1h-1zM4 17h1v1h-1zM7 17h1v1h-1zM12 17h1v1h-1zM15 17h1v1h-1zM17 17h1v1h-1zM19 17h1v1h-1zM4 18h1v1h-1zM7 18h1v1h-1zM12 18h1v1h-1zM15 18h1v1h-1zM18 18h2v1h-2zM4 19h4v1h-4zM12 19h4v1h-4z"/><path fill="#c19a5e" d="M3 6h1v1h-1zM12 6h1v1h-1zM3 7h9v1h-9zM3 8h9v1h-9zM2 9h1v1h-1zM5 9h7v1h-7zM4 10h9v1h-9zM5 11h8v1h-8zM5 12h8v1h-8zM6 13h12v1h-12zM5 14h13v1h-13zM5 15h10v1h-10zM18 15h1v1h-1zM19 16h1v1h-1z"/><path fill="#e3c389" d="M4 6h1v1h-1zM11 6h1v1h-1zM2 8h1v1h-1z"/><path fill="#ffffff" d="M4 9h1v1h-1z"/><path fill="#cdd6e0" d="M2 10h2v1h-2zM3 11h2v1h-2zM3 12h2v1h-2zM4 13h2v1h-2zM4 14h1v1h-1z"/><path fill="#2e3138" d="M2 11h1v1h-1zM5 16h2v1h-2zM13 16h2v1h-2zM5 17h2v1h-2zM13 17h2v1h-2zM5 18h2v1h-2zM13 18h2v1h-2z"/><path fill="#8a6a3a" d="M17 15h1v1h-1zM18 16h1v1h-1zM18 17h1v1h-1z"/></svg>
