<svg xmlns="http://www.w3.org/2000/svg" viewBox="0 0 24 24" shape-rendering="crispEdges"><path fill="#2e3138" d="M3 6h1v1h-1zM8 6h1v1h-1zM5 12h1v1h-1zM8 12h1v1h-1zM4 13h1v1h-1zM7 13h1v1h-1zM15 13h1v1h-1z"/><path fill="#1a1c2c" d="M3 7h2v1h-2zM7 7h2v1h-2zM2 8h1v1h-1zM9 8h1v1h-1zM1 9h1v1h-1zM3 9h1v1h-1zM10 9h1v1h-1zM1 10h1v1h-1zM10 10h1v1h-1zM2 11h1v1h-1zM13 11h1v1h-1zM1 12h1v1h-1zM14 12h1v1h-1zM1 13h1v1h-1zM13 13h2v1h-2zM16 13h1v1h-1zM2 14h1v1h-1zM14 14h1v1h-1zM3 15h1v1h-1zM6 15h1v1h-1zM10 15h1v1h-1zM13 15h1v1h-1zM3 16h1v1h-1zM6 16h1v1h-1zM10 16h1v1h-1zM13 16h1v1h-1zM3 17h4v1h-4zM10 17h4v1h-4z"/><path fill="#c19a5e" d="M3 8h6v1h-6zM2 9h1v1h-1zM5 9h5v1h-5zM4 10h6v1h-6zM4 11h9v1h-9zM2 12h3v1h-3zM6 12h2v1h-2zM9 12h5v1h-5zM2 13h2v1h-2zM5 13h2v1h-2zM8 13h5v1h-5zM3 14h11v1h-11zM4 15h2v1h-2zM11 15h2v1h-2zM4 16h2v1h-2zM11 16h2v1h-2z"/><path fill="#ffffff" d="M4 9h1v1h-1z"/><path fill="#f4f7fa" d="M2 10h2v1h-2zM3 11h1v1h-1z"/></svg>
