<svg xmlns="http://www.w3.org/2000/svg" viewBox="0 0 24 24" shape-rendering="crispEdges"><path fill="#e0c898" d="M2 2h4v1h-4zM9 2h4v1h-4zM3 3h3v1h-3zM9 3h3v1h-3zM5 4h1v1h-1zM10 4h1v1h-1z"/><path fill="#1a1c2c" d="M4 5h5v1h-5zM3 6h1v1h-1zM8 6h1v1h-1zM2 7h1v1h-1zM5 7h1v1h-1zM9 7h1v1h-1zM1 8h1v1h-1zM9 8h1v1h-1zM2 9h1v1h-1zM9 9h1v1h-1zM4 10h1v1h-1zM19 10h1v1h-1zM4 11h1v1h-1zM19 11h1v1h-1zM4 12h1v1h-1zM18 12h1v1h-1zM5 13h1v1h-1zM18 13h1v1h-1zM5 14h1v1h-1zM17 14h1v1h-1zM5 15h1v1h-1zM7 15h1v1h-1zM13 15h1v1h-1zM15 15h1v1h-1zM5 16h1v1h-1zM7 16h1v1h-1zM13 16h1v1h-1zM15 16h1v1h-1zM5 17h1v1h-1zM7 17h1v1h-1zM13 17h1v1h-1zM15 17h1v1h-1zM5 18h1v1h-1zM7 18h1v1h-1zM13 18h1v1h-1zM15 18h1v1h-1zM5 19h1v1h-1zM7 19h1v1h-1zM13 19h1v1h-1zM15 19h1v1h-1zM5 20h3v1h-3zM13 20h3v1h-3z"/><path fill="#5c3a21" d="M4 6h4v1h-4zM3 7h2v1h-2zM7 7h2v1h-2zM2 8h7v1h-7zM3 9h6v1h-6zM5 10h14v1h-14zM5 11h1v1h-1zM7 11h12v1h-12zM5 12h13v1h-13zM6 13h12v1h-12zM6 14h11v1h-11zM6 15h1v1h-1zM14 15h1v1h-1zM6 16h1v1h-1zM14 16h1v1h-1zM6 17h1v1h-1zM14 17h1v1h-1zM6 18h1v1h-1zM14 18h1v1h-1z"/><path fill="#ffffff" d="M6 7h1v1h-1z"/><path fill="#8a5a32" d="M6 11h1v1h-1z"/><path fill="#2e3138" d="M6 19h1v1h-1zM14 19h1v1h-1z"/></svg>
