<svg xmlns="http://www.w3.org/2000/svg" viewBox="0 0 24 24" shape-rendering="crispEdges"><path fill="#1a1c2c" d="M4 5h4v1h-4zM3 6h1v1h-1zM9 6h1v1h-1zM3 7h1v1h-1zM5 7h1v1h-1zM10 7h1v1h-1zM3 8h1v1h-1zM11 8h1v1h-1zM2 9h1v1h-1zM12 9h1v1h-1zM2 10h1v1h-1zM13 10h1v1h-1zM1 11h1v1h-1zM13 11h1v1h-1zM1 12h1v1h-1zM13 12h1v1h-1zM1 13h1v1h-1zM13 13h1v1h-1zM1 14h1v1h-1zM13 14h1v1h-1zM2 15h1v1h-1zM13 15h1v1h-1zM3 16h1v1h-1zM6 16h1v1h-1zM10 16h1v1h-1zM13 16h1v1h-1zM3 17h4v1h-4zM10 17h4v1h-4z"/><path fill="#8a5a32" d="M4 6h5v1h-5zM4 7h1v1h-1zM7 7h3v1h-3zM4 8h7v1h-7zM3 9h9v1h-9zM6 10h7v1h-7zM2 11h1v1h-1zM7 11h6v1h-6zM2 12h1v1h-1zM7 12h6v1h-6zM2 13h1v1h-1zM7 13h6v1h-6zM2 14h2v1h-2zM7 14h6v1h-6zM3 15h10v1h-10zM4 16h2v1h-2zM11 16h2v1h-2z"/><path fill="#ffffff" d="M6 7h1v1h-1z"/><path fill="#e0c898" d="M3 10h3v1h-3zM3 11h4v1h-4zM3 12h4v1h-4zM3 13h4v1h-4zM4 14h3v1h-3z"/></svg>
