<svg xmlns="http://www.w3.org/2000/svg" viewBox="0 0 24 24" shape-rendering="crispEdges"><path fill="#1a1c2c" d="M8 8h1v1h-1zM10 8h1v1h-1zM12 8h1v1h-1zM14 8h1v1h-1zM16 8h1v1h-1zM7 9h1v1h-1zM9 9h1v1h-1zM11 9h1v1h-1zM13 9h1v1h-1zM15 9h1v1h-1zM17 9h1v1h-1zM6 10h1v1h-1zM18 10h1v1h-1zM5 11h1v1h-1zM19 11h1v1h-1zM3 12h1v1h-1zM7 12h1v1h-1zM20 12h1v1h-1zM2 13h1v1h-1zM4 13h1v1h-1zM19 13h1v1h-1zM2 14h1v1h-1zM19 14h1v1h-1zM3 15h1v1h-1zM18 15h1v1h-1zM3 16h1v1h-1zM6 16h1v1h-1zM15 16h1v1h-1zM18 16h1v1h-1zM3 17h4v1h-4zM15 17h4v1h-4z"/><path fill="#f5e6c4" d="M8 9h1v1h-1zM10 9h1v1h-1zM12 9h1v1h-1zM14 9h1v1h-1zM16 9h1v1h-1zM8 10h1v1h-1zM10 10h1v1h-1zM12 10h1v1h-1zM14 10h1v1h-1zM16 10h1v1h-1zM3 14h1v1h-1z"/><path fill="#2e3138" d="M7 10h1v1h-1zM9 10h1v1h-1zM11 10h1v1h-1zM13 10h1v1h-1zM15 10h1v1h-1zM17 10h1v1h-1zM6 11h13v1h-13zM8 12h12v1h-12zM7 13h12v1h-12zM7 14h12v1h-12zM4 15h14v1h-14zM4 16h2v1h-2zM16 16h2v1h-2z"/><path fill="#8a5a32" d="M4 12h3v1h-3zM3 13h1v1h-1zM6 13h1v1h-1zM4 14h3v1h-3z"/><path fill="#ffffff" d="M5 13h1v1h-1z"/></svg>
