<svg xmlns="http://www.w3.org/2000/svg" viewBox="0 0 24 24" shape-rendering="crispEdges"><path fill="#1a1c2c" d="M2 9h4v1h-4zM1 10h1v1h-1zM3 10h1v1h-1zM6 10h1v1h-1zM1 11h1v1h-1zM6 11h1v1h-1zM2 12h1v1h-1zM7 12h2v1h-2zM3 13h1v1h-1zM17 13h1v1h-1zM3 14h1v1h-1zM20 14h1v1h-1zM4 15h1v1h-1zM17 15h2v1h-2zM21 15h1v1h-1zM5 16h1v1h-1zM8 16h1v1h-1zM12 16h1v1h-1zM15 16h1v1h-1zM19 16h2v1h-2zM5 17h4v1h-4zM12 17h4v1h-4z"/><path fill="#5c3a21" d="M2 10h1v1h-1zM5 10h1v1h-1zM4 11h2v1h-2zM3 12h4v1h-4zM4 13h13v1h-13zM5 14h13v1h-13zM5 15h12v1h-12zM6 16h2v1h-2zM13 16h2v1h-2z"/><path fill="#ffffff" d="M4 10h1v1h-1zM2 11h2v1h-2z"/><path fill="#8a5a32" d="M4 14h1v1h-1z"/><path fill="#16181d" d="M18 14h2v1h-2zM19 15h2v1h-2z"/></svg>
