<svg xmlns="http://www.w3.org/2000/svg" viewBox="0 0 24 24" shape-rendering="crispEdges"><path fill="#2e3138" d="M3 2h1v1h-1zM6 2h1v1h-1zM4 3h1v1h-1zM6 3h1v1h-1zM5 4h2v1h-2zM6 15h1v1h-1zM15 15h1v1h-1zM6 16h1v1h-1zM15 16h1v1h-1zM6 17h1v1h-1zM15 17h1v1h-1zM6 18h1v1h-1zM15 18h1v1h-1zM6 19h1v1h-1zM15 19h1v1h-1z"/><path fill="#1a1c2c" d="M4 5h4v1h-4zM3 6h1v1h-1zM7 6h1v1h-1zM2 7h1v1h-1zM6 7h1v1h-1zM9 7h1v1h-1zM3 8h1v1h-1zM8 8h1v1h-1zM4 9h1v1h-1zM8 9h1v1h-1zM5 10h1v1h-1zM18 10h1v1h-1zM4 11h1v1h-1zM19 11h1v1h-1zM4 12h1v1h-1zM19 12h1v1h-1zM4 13h1v1h-1zM19 13h1v1h-1zM5 14h1v1h-1zM17 14h1v1h-1zM5 15h1v1h-1zM7 15h1v1h-1zM14 15h1v1h-1zM16 15h1v1h-1zM5 16h1v1h-1zM7 16h1v1h-1zM14 16h1v1h-1zM16 16h1v1h-1zM5 17h1v1h-1zM7 17h1v1h-1zM14 17h1v1h-1zM16 17h1v1h-1zM5 18h1v1h-1zM7 18h1v1h-1zM14 18h1v1h-1zM16 18h1v1h-1zM5 19h1v1h-1zM7 19h1v1h-1zM14 19h1v1h-1zM16 19h1v1h-1zM5 20h3v1h-3zM14 20h3v1h-3z"/><path fill="#c19a5e" d="M4 6h3v1h-3zM4 7h2v1h-2zM8 7h1v1h-1zM4 8h4v1h-4zM5 9h3v1h-3zM6 10h12v1h-12zM6 11h12v1h-12zM6 12h12v1h-12zM5 13h14v1h-14zM6 14h11v1h-11z"/><path fill="#f4f7fa" d="M3 7h1v1h-1zM18 11h1v1h-1zM18 12h1v1h-1z"/><path fill="#ffffff" d="M7 7h1v1h-1z"/><path fill="#e3c389" d="M5 11h1v1h-1zM5 12h1v1h-1z"/></svg>
