<svg xmlns="http://www.w3.org/2000/svg" viewBox="0 0 24 24" shape-rendering="crispEdges"><path fill="#1a1c2c" d="M6 8h7v1h-7zM5 9h1v1h-1zM13 9h3v1h-3zM2 10h3v1h-3zM17 10h1v1h-1zM1 11h1v1h-1zM18 11h1v1h-1zM1 12h1v1h-1zM18 12h1v1h-1zM1 13h1v1h-1zM17 13h1v1h-1zM2 14h1v1h-1zM5 14h1v1h-1zM16 14h1v1h-1zM2 15h1v1h-1zM4 15h1v1h-1zM7 15h1v1h-1zM10 15h1v1h-1zM14 15h1v1h-1zM17 15h1v1h-1zM7 16h1v1h-1zM10 16h1v1h-1zM14 16h1v1h-1zM17 16h1v1h-1zM7 17h1v1h-1zM10 17h1v1h-1zM14 17h1v1h-1zM17 17h1v1h-1zM7 18h4v1h-4zM14 18h4v1h-4z"/><path fill="#8a5a32" d="M6 9h7v1h-7zM5 10h12v1h-12zM5 11h13v1h-13zM6 12h12v1h-12zM6 13h11v1h-11zM6 14h10v1h-10zM8 15h2v1h-2zM15 15h2v1h-2zM8 16h2v1h-2zM15 16h2v1h-2zM8 17h2v1h-2zM15 17h2v1h-2z"/><path fill="#e0c898" d="M2 11h1v1h-1z"/><path fill="#16181d" d="M3 11h2v1h-2zM2 12h1v1h-1zM4 12h2v1h-2zM2 13h4v1h-4zM3 14h2v1h-2zM3 15h1v1h-1z"/><path fill="#ffffff" d="M3 12h1v1h-1z"/></svg>
