<svg xmlns="http://www.w3.org/2000/svg" viewBox="0 0 24 24" shape-rendering="crispEdges"><path fill="#1a1c2c" d="M11 5h1v1h-1zM16 5h1v1h-1zM10 6h1v1h-1zM17 6h1v1h-1zM3 7h2v1h-2zM9 7h1v1h-1zM18 7h1v1h-1zM2 8h1v1h-1zM5 8h1v1h-1zM9 8h1v1h-1zM18 8h1v1h-1zM2 9h1v1h-1zM5 9h1v1h-1zM8 9h1v1h-1zM19 9h1v1h-1zM3 10h1v1h-1zM6 10h1v1h-1zM8 10h1v1h-1zM19 10h1v1h-1zM3 11h1v1h-1zM7 11h2v1h-2zM18 11h1v1h-1zM2 12h1v1h-1zM17 12h1v1h-1zM2 13h1v1h-1zM15 13h1v1h-1zM3 14h1v1h-1zM14 14h1v1h-1zM5 15h1v1h-1zM7 15h1v1h-1zM10 15h1v1h-1zM12 15h1v1h-1zM5 16h1v1h-1zM7 16h1v1h-1zM10 16h1v1h-1zM12 16h1v1h-1zM4 17h1v1h-1zM7 17h1v1h-1zM9 17h1v1h-1zM12 17h1v1h-1z"/><path fill="#e0c898" d="M12 5h4v1h-4zM11 6h1v1h-1zM16 6h1v1h-1zM10 7h1v1h-1zM17 7h1v1h-1zM10 8h1v1h-1zM17 8h1v1h-1zM9 9h1v1h-1zM18 9h1v1h-1zM9 10h1v1h-1zM18 10h1v1h-1zM17 11h1v1h-1zM16 12h1v1h-1z"/><path fill="#8a5a32" d="M12 6h4v1h-4zM11 7h6v1h-6zM3 8h1v1h-1zM11 8h6v1h-6zM4 9h1v1h-1zM10 9h8v1h-8zM4 10h2v1h-2zM10 10h8v1h-8zM4 11h3v1h-3zM9 11h8v1h-8zM3 12h13v1h-13zM3 13h12v1h-12zM4 14h10v1h-10z"/><path fill="#e8b830" d="M1 8h1v1h-1zM6 15h1v1h-1zM11 15h1v1h-1zM6 16h1v1h-1zM11 16h1v1h-1zM5 17h2v1h-2zM10 17h2v1h-2z"/><path fill="#ffffff" d="M4 8h1v1h-1z"/><path fill="#cc2f2f" d="M3 9h1v1h-1z"/></svg>
