<svg xmlns="http://www.w3.org/2000/svg" viewBox="0 0 24 24" shape-rendering="crispEdges"><path fill="#1a1c2c" d="M3 4h4v1h-4zM4 5h1v1h-1zM8 5h1v1h-1zM4 6h1v1h-1zM7 6h1v1h-1zM5 7h1v1h-1zM7 7h1v1h-1zM5 8h1v1h-1zM7 8h1v1h-1zM6 9h1v1h-1zM8 9h1v1h-1zM6 10h1v1h-1zM8 10h1v1h-1zM6 11h1v1h-1zM14 11h1v1h-1zM5 12h1v1h-1zM15 12h1v1h-1zM5 13h1v1h-1zM15 13h1v1h-1zM6 14h1v1h-1zM14 14h1v1h-1zM7 15h1v1h-1zM13 15h1v1h-1zM8 16h1v1h-1zM10 16h1v1h-1zM12 16h1v1h-1zM14 16h1v1h-1zM8 17h1v1h-1zM10 17h1v1h-1zM12 17h1v1h-1zM14 17h1v1h-1zM8 18h1v1h-1zM10 18h1v1h-1zM12 18h1v1h-1zM14 18h1v1h-1zM8 19h1v1h-1zM10 19h1v1h-1zM12 19h1v1h-1zM14 19h1v1h-1zM8 20h3v1h-3zM13 20h3v1h-3z"/><path fill="#e8b830" d="M1 5h3v1h-3z"/><path fill="#7b8089" d="M5 5h1v1h-1zM7 5h1v1h-1zM5 6h2v1h-2zM6 7h1v1h-1zM6 8h1v1h-1zM7 9h1v1h-1zM7 10h1v1h-1zM7 11h7v1h-7zM6 12h9v1h-9zM7 13h8v1h-8zM7 14h7v1h-7zM8 15h5v1h-5z"/><path fill="#ffffff" d="M6 5h1v1h-1z"/><path fill="#aab0b8" d="M6 13h1v1h-1z"/><path fill="#2e3138" d="M9 16h1v1h-1zM13 16h1v1h-1zM9 17h1v1h-1zM13 17h1v1h-1zM9 18h1v1h-1zM13 18h1v1h-1zM9 19h1v1h-1zM13 19h1v1h-1z"/></svg>
