<svg xmlns="http://www.w3.org/2000/svg" viewBox="0 0 24 24" shape-rendering="crispEdges"><path fill="#1a1c2c" d="M3 10h2v1h-2zM9 10h2v1h-2zM2 11h1v1h-1zM5 11h1v1h-1zM8 11h1v1h-1zM11 11h1v1h-1zM1 12h1v1h-1zM14 12h1v1h-1zM1 13h1v1h-1zM16 13h1v1h-1zM1 14h1v1h-1zM16 14h1v1h-1zM1 15h1v1h-1zM16 15h1v1h-1zM2 16h1v1h-1zM4 16h1v1h-1zM7 16h1v1h-1zM9 16h1v1h-1zM13 16h1v1h-1zM17 16h1v1h-1zM2 17h3v1h-3zM7 17h3v1h-3zM13 17h5v1h-5z"/><path fill="#ffffff" d="M3 11h1v1h-1zM9 11h1v1h-1z"/><path fill="#5c7340" d="M4 11h1v1h-1zM10 11h1v1h-1zM2 12h12v1h-12zM3 13h13v1h-13zM2 14h10v1h-10zM10 15h1v1h-1zM15 15h1v1h-1zM14 16h3v1h-3z"/><path fill="#86a05c" d="M2 13h1v1h-1z"/><path fill="#3a4a2a" d="M12 14h4v1h-4zM11 15h4v1h-4z"/><path fill="#f5e6c4" d="M2 15h8v1h-8zM3 16h1v1h-1zM8 16h1v1h-1z"/></svg>
