<svg xmlns="http://www.w3.org/2000/svg" viewBox="0 0 24 24" shape-rendering="crispEdges"><path fill="#1a1c2c" d="M7 9h7v1h-7zM6 10h1v1h-1zM14 10h1v1h-1zM5 11h1v1h-1zM15 11h1v1h-1zM4 12h1v1h-1zM17 12h1v1h-1zM3 13h1v1h-1zM17 13h1v1h-1zM1 14h1v1h-1zM5 14h1v1h-1zM17 14h1v1h-1zM2 15h1v1h-1zM4 15h1v1h-1zM7 15h1v1h-1zM10 15h1v1h-1zM14 15h1v1h-1zM17 15h1v1h-1zM7 16h4v1h-4zM14 16h4v1h-4z"/><path fill="#4e8c3a" d="M7 10h7v1h-7zM6 11h1v1h-1zM8 11h3v1h-3zM12 11h3v1h-3zM5 12h2v1h-2zM8 12h3v1h-3zM12 12h3v1h-3zM16 12h1v1h-1zM4 13h13v1h-13z"/><path fill="#7ab648" d="M7 11h1v1h-1zM11 11h1v1h-1z"/><path fill="#2e5d2e" d="M7 12h1v1h-1zM11 12h1v1h-1zM15 12h1v1h-1zM6 14h11v1h-11z"/><path fill="#5c7340" d="M2 14h1v1h-1zM4 14h1v1h-1zM3 15h1v1h-1zM8 15h2v1h-2zM15 15h2v1h-2z"/><path fill="#ffffff" d="M3 14h1v1h-1z"/></svg>
