<svg xmlns="http://www.w3.org/2000/svg" viewBox="0 0 24 24" shape-rendering="crispEdges"><path fill="#1a1c2c" d="M6 10h1v1h-1zM15 10h1v1h-1zM18 10h1v1h-1zM20 10h1v1h-1zM4 11h1v1h-1zM17 11h1v1h-1zM19 11h1v1h-1zM22 11h1v1h-1zM2 12h1v1h-1zM17 12h2v1h-2zM21 12h1v1h-1zM2 13h1v1h-1zM16 13h2v1h-2zM20 13h1v1h-1zM4 14h1v1h-1zM15 14h1v1h-1zM18 14h1v1h-1zM20 14h1v1h-1zM6 15h1v1h-1zM13 15h1v1h-1z"/><path fill="#5c7340" d="M7 10h2v1h-2zM10 10h2v1h-2zM13 10h2v1h-2zM5 11h12v1h-12zM4 12h1v1h-1z"/><path fill="#86a05c" d="M9 10h1v1h-1zM12 10h1v1h-1z"/><path fill="#3a4a2a" d="M19 10h1v1h-1zM20 11h2v1h-2zM19 12h2v1h-2zM18 13h2v1h-2zM19 14h1v1h-1z"/><path fill="#ffffff" d="M3 12h1v1h-1z"/><path fill="#e88aa8" d="M5 12h12v1h-12z"/><path fill="#f5e6c4" d="M3 13h13v1h-13zM5 14h10v1h-10zM7 15h6v1h-6z"/></svg>
