<svg xmlns="http://www.w3.org/2000/svg" viewBox="0 0 24 24" shape-rendering="crispEdges"><path fill="#1a1c2c" d="M14 9h1v1h-1zM17 9h1v1h-1zM6 10h1v1h-1zM17 10h1v1h-1zM19 10h1v1h-1zM21 10h1v1h-1zM4 11h1v1h-1zM18 11h2v1h-2zM22 11h1v1h-1zM2 12h1v1h-1zM18 12h2v1h-2zM22 12h1v1h-1zM2 13h1v1h-1zM15 13h4v1h-4zM21 13h1v1h-1zM4 14h1v1h-1zM15 14h1v1h-1zM18 14h1v1h-1zM20 14h1v1h-1zM6 15h1v1h-1zM13 15h1v1h-1z"/><path fill="#2e5d2e" d="M15 9h2v1h-2zM20 10h1v1h-1zM20 11h2v1h-2zM20 12h2v1h-2zM19 13h2v1h-2zM19 14h1v1h-1z"/><path fill="#4e8c3a" d="M7 10h1v1h-1zM9 10h4v1h-4zM15 10h2v1h-2zM5 11h4v1h-4zM10 11h8v1h-8zM4 12h9v1h-9zM14 12h4v1h-4z"/><path fill="#7ab648" d="M8 10h1v1h-1zM13 10h2v1h-2zM9 11h1v1h-1zM13 12h1v1h-1z"/><path fill="#ffffff" d="M3 12h1v1h-1z"/><path fill="#f5e6c4" d="M3 13h12v1h-12zM5 14h10v1h-10zM7 15h6v1h-6z"/></svg>
